<svg id="Layer_1" data-name="Layer 1" xmlns="http://www.w3.org/2000/svg" viewBox="0 0 120 35"><defs><style>.cls-1{fill:#231f20;}</style></defs><title>Movember_Primary Logo_Black</title><path class="cls-1" d="M99.44,25.83V22.6h.83c.36,0,.53.18.53.55v2.13c0,.37-.17.55-.53.55ZM96.28,20V33.76h3.16V28.28h.78l1,5.48h3c0-.12-.07-.2-.08-.25s0-.13-.07-.24l-.14-.49c-.06-.21-.15-.54-.26-1l-.44-1.74c-.19-.71-.43-1.63-.7-2.74a2,2,0,0,0,.91-.81,2,2,0,0,0,.31-1v-3a2.28,2.28,0,0,0-.27-1.13,2.49,2.49,0,0,0-.7-.78,3.15,3.15,0,0,0-1-.46A4.79,4.79,0,0,0,100.7,20Z"/><path class="cls-1" d="M107.17,21.49h.9a.26.26,0,0,1,.24.13.47.47,0,0,1,.09.28.57.57,0,0,1-.09.32.29.29,0,0,1-.24.12h-.9Zm0,2.29V22.7h.55l.6,1.08h.46l-.65-1.09a.7.7,0,0,0,.48-.28.85.85,0,0,0,.18-.53.87.87,0,0,0-.18-.53.66.66,0,0,0-.55-.24h-1.3v2.67Zm-1.38-1.34a1.94,1.94,0,0,1,3.3-1.39,2.06,2.06,0,0,1,0,2.78,2,2,0,0,1-2.75,0,1.89,1.89,0,0,1-.55-1.39m4.21,0a2.21,2.21,0,0,0-.66-1.63,2.33,2.33,0,0,0-3.25,0,2.34,2.34,0,0,0,0,3.26,2.36,2.36,0,0,0,3.25,0,2.21,2.21,0,0,0,.66-1.63"/><path class="cls-1" d="M78.8,9.57h0V9.48c-.34-2.06,0,0-1.07-5.94a21.07,21.07,0,0,0-.5-2.28.26.26,0,0,0,0-.09.17.17,0,0,0-.13-.07.18.18,0,0,0-.18.17h0v.05c0,.31-.29,3.35-.3,3.5a4.43,4.43,0,0,1-.39,1.54c-.18.17-.48.42-.85.73-.13.12-.28.24-.43.36a.76.76,0,0,1-.51.2,1,1,0,0,1-.51-.15L72.21,6.26h0a.1.1,0,0,1,0,0l-1.34-1C68.76,3.67,66.7,1.91,64.41,1.2a5.33,5.33,0,0,0-3,0,5.35,5.35,0,0,0-1.2.49c-1,.53-1.62,1.41-2.39,1.83h-.12c-.77-.42-1.38-1.3-2.39-1.83a5.35,5.35,0,0,0-1.2-.49,5.33,5.33,0,0,0-3,0c-2.3.71-4.35,2.47-6.42,4.06l-1.33,1-.05,0h0L41.55,7.5a1,1,0,0,1-.51.15.8.8,0,0,1-.51-.2l-.42-.36c-.38-.31-.67-.56-.85-.73a4.43,4.43,0,0,1-.39-1.54c0-.15-.28-3.19-.31-3.5V1.27h0a.19.19,0,0,0-.18-.17.17.17,0,0,0-.13.07.26.26,0,0,0,0,.09,18.79,18.79,0,0,0-.5,2.28C36.64,9.48,37,7.42,36.64,9.48a.28.28,0,0,0,0,.09h0a.28.28,0,0,0,.18.28q2.7,1.19,5.42,2.34l.43.19a1.07,1.07,0,0,0,.59,0c.57-.1,1.13-.26,1.71-.36a21.86,21.86,0,0,1,4.39-.72c1.15,0,2.3,0,3.45-.07a1.9,1.9,0,0,0,.45-.08l4.26-1.84a.32.32,0,0,1,.14,0h0l.15,0,4.25,1.84a1.9,1.9,0,0,0,.45.08c1,0,2,.08,3,.08h.73a24.5,24.5,0,0,1,4,.72c.58.1,1.14.26,1.72.36a1.23,1.23,0,0,0,.34,0,.79.79,0,0,0,.37,0c2-.83,4-1.67,6-2.53A.28.28,0,0,0,78.8,9.57Z"/><polygon class="cls-1" points="47.71 33.76 54.07 33.76 54.07 31.14 50.94 31.14 50.94 28 53.02 28 53.02 25.39 50.94 25.39 50.94 22.42 54.07 22.42 54.07 19.98 47.71 19.98 47.71 33.76"/><polygon class="cls-1" points="85.97 33.76 92.33 33.76 92.33 31.14 89.2 31.14 89.2 28 91.27 28 91.27 25.39 89.2 25.39 89.2 22.42 92.33 22.42 92.33 19.98 85.97 19.98 85.97 33.76"/><path class="cls-1" d="M80.6,20.58a3,3,0,0,0-1-.46A4.79,4.79,0,0,0,78.47,20H74.08V33.76h4.39a4.33,4.33,0,0,0,1.13-.15,3,3,0,0,0,1-.46,2.32,2.32,0,0,0,.71-.78,2.36,2.36,0,0,0,.26-1.13V28.35a1.45,1.45,0,0,0-.31-.91,2.14,2.14,0,0,0-.93-.69,2.24,2.24,0,0,0,.93-.7,1.47,1.47,0,0,0,.31-.91V22.49a2.39,2.39,0,0,0-.26-1.13A2.52,2.52,0,0,0,80.6,20.58Zm-2,10a.49.49,0,0,1-.55.56h-.79V28.11H78a.63.63,0,0,1,.41.12.5.5,0,0,1,.14.41Zm0-5.58a.48.48,0,0,1-.55.54h-.79v-3H78a.48.48,0,0,1,.55.55Z"/><polygon class="cls-1" points="63.98 26.27 62.62 19.98 58.14 19.98 58.14 33.76 60.98 33.76 60.98 24.97 62.69 33.76 64.68 33.76 66.68 24.99 66.68 33.76 69.85 33.76 69.85 19.98 65.3 19.98 63.98 26.27"/><polygon class="cls-1" points="15.84 26.27 14.48 19.98 10 19.98 10 33.76 12.84 33.76 12.84 24.97 14.55 33.76 16.54 33.76 18.54 24.99 18.54 33.76 21.71 33.76 21.71 19.98 17.16 19.98 15.84 26.27"/><path class="cls-1" d="M31.83,20.73A4.38,4.38,0,0,0,30.58,20,4.18,4.18,0,0,0,29,19.72a4.25,4.25,0,0,0-1.57.28,4.3,4.3,0,0,0-1.26.73,3.35,3.35,0,0,0-.84,1,2.16,2.16,0,0,0-.3,1.06V31a2.22,2.22,0,0,0,.3,1.06,3.49,3.49,0,0,0,.84,1,4.52,4.52,0,0,0,1.26.72A4.25,4.25,0,0,0,29,34a4.18,4.18,0,0,0,1.57-.28A4.6,4.6,0,0,0,31.83,33a3.49,3.49,0,0,0,.84-1A2.22,2.22,0,0,0,33,31v-8.2a2.16,2.16,0,0,0-.3-1.06A3.35,3.35,0,0,0,31.83,20.73Zm-2.16,10a.51.51,0,0,1-.19.43.71.71,0,0,1-.47.16.67.67,0,0,1-.47-.16.5.5,0,0,1-.2-.43V23a.51.51,0,0,1,.2-.43.72.72,0,0,1,.47-.15.75.75,0,0,1,.47.15.53.53,0,0,1,.19.43Z"/><polygon class="cls-1" points="40.14 27.68 39.3 19.98 35.86 19.98 38.55 33.76 41.59 33.76 44.28 19.98 41.11 19.98 40.14 27.68"/></svg>